<svg viewBox="-5 1 511 511.99899" xmlns="http://www.w3.org/2000/svg"><path d="m420.378906 277.605469-19.292968 19.292969-63.890626-89.449219 106.929688-76.378907-131.070312-131.070312-62.019532 86.828125-62.019531-86.828125-131.070313 131.070312 106.929688 76.378907-63.890625 89.449219-19.292969-19.292969-63.621094 63.625c-11.332031 11.328125-17.570312 26.390625-17.570312 42.414062 0 16.019531 6.238281 31.082031 17.570312 42.410157 10.578126 10.582031 24.152344 16.355468 38.019532 17.367187v38.585937h-29.882813v29.992188h89.972657v-29.992188h-30.097657v-44.125c6.085938-2.867187 11.792969-6.804687 16.816407-11.828124l63.621093-63.617188-19.292969-19.296875 103.808594-74.148437 103.8125 74.148437-19.292968 19.296875 63.621093 63.617188c4.964844 4.96875 10.648438 8.953124 16.8125 11.867187v44.085937h-29.882812v29.992188h89.972656v-29.992188h-30.097656v-38.558593c14.367187-1.035157 27.734375-7.105469 38.023437-17.394531 23.386719-23.386719 23.386719-61.4375 0-84.828126zm-316.191406-150.363281 81-81 47.417969 66.386718-50.296875 70.414063zm19.917969 235.195312-38.023438 38.019531v-27.417969h-29.992187v40.277344c-6.34375-.925781-12.199219-3.851562-16.8125-8.46875-5.667969-5.664062-8.785156-13.191406-8.785156-21.203125s3.117187-15.542969 8.785156-21.207031l42.414062-42.414062 1.621094 1.617187 39.171875 39.175781zm-1.621094-44.039062 194.398437-272.15625 81 81-272.15625 194.398437zm154.351563-67.835938 35.953124-25.679688 66.796876 93.515626-3.242188 3.242187zm185.957031 154.285156c-4.613281 4.617188-10.46875 7.542969-16.8125 8.46875v-40.277344h-29.992188v27.417969l-38.023437-38.023437 42.414062-42.414063 42.414063 42.414063c11.695312 11.695312 11.695312 30.722656 0 42.414062zm0 0"/></svg>