<svg viewBox="-5 0 512 512.00001" xmlns="http://www.w3.org/2000/svg">
    <path d="m379.089844 360.816406-321.65625-229.738281 131.078125-131.078125 229.738281 321.65625zm0 0"
          fill="#fdbf00"/>
    <path d="m250.53125 268.992188 128.558594 91.824218 39.160156-39.160156-167.71875-234.824219zm0 0" fill="#ff9f00"/>
    <path d="m121.96875 360.816406-39.15625-39.160156 229.734375-321.65625 131.078125 131.078125zm0 0" fill="#ffd400"/>
    <path d="m250.53125 268.992188 193.09375-137.914063-131.078125-131.078125-62.015625 86.832031zm0 0" fill="#fdbf00"/>
    <path d="m59.980469 443.625c-16.035157 0-31.089844-6.238281-42.40625-17.570312-11.335938-11.320313-17.574219-26.375-17.574219-42.410157 0-16.019531 6.238281-31.074219 17.574219-42.410156l63.613281-63.625 84.832031 84.832031-63.628906 63.613282c-11.335937 11.332031-26.386719 17.570312-42.410156 17.570312zm0 0"
          fill="#804231"/>
    <path d="m55.589844 373.042969h29.988281v123.960937h-29.988281zm0 0" fill="#582b1f"/>
    <path d="m25.597656 482.007812h89.972656v29.992188h-89.972656zm0 0" fill="#804231"/>
    <path d="m441.078125 443.625c-16.019531 0-31.074219-6.238281-42.410156-17.570312l-63.625-63.613282 84.832031-84.832031 63.613281 63.625c11.332031 11.335937 17.570313 26.390625 17.570313 42.410156 0 16.035157-6.238282 31.089844-17.570313 42.410157-11.320312 11.332031-26.375 17.570312-42.410156 17.570312zm0 0"
          fill="#663325"
    />
    <path d="m415.480469 373.042969h29.992187v123.960937h-29.992187zm0 0" fill="#3c1b13"/>
    <path d="m385.488281 482.007812h89.972657v29.992188h-89.972657zm0 0" fill="#663325"/>
</svg>