<?xml version="1.0" encoding="iso-8859-1"?>
<!-- Generator: Adobe Illustrator 19.0.0, SVG Export Plug-In . SVG Version: 6.00 Build 0)  -->
<svg version="1.1" id="Capa_1" xmlns="http://www.w3.org/2000/svg" xmlns:xlink="http://www.w3.org/1999/xlink" x="0px" y="0px"
	 viewBox="0 0 331.2 331.2" style="enable-background:new 0 0 331.2 331.2;" xml:space="preserve">
<g>
	<g>
		<path d="M54.004,237.2c-1.2-2.4-3.6-3.6-6.4-3.6s-5.2,1.6-6.4,3.6c-4.4,7.6-25.6,47.2-25.6,62c-0.4,17.6,14,32,32,32
			c17.6,0,32-14.4,32-32C79.604,284.4,58.004,244.8,54.004,237.2z M47.604,316.8c-9.6,0-17.6-8-17.6-17.6c0-6.4,8.8-26,17.6-42.8
			c8.8,16.8,17.6,36.4,17.6,42.8C65.204,308.8,57.204,316.8,47.604,316.8z"/>
	</g>
</g>
<g>
	<g>
		<path d="M299.604,55.2h-24c-8.8,0-16,7.2-16,16v41.6h-29.6c-6-7.6-14.4-14.4-24-19.2V66.4c0-8.8-7.2-16-16-16h-15.6v-36h29.2
			c4,0,7.2-3.2,7.2-7.2s-3.2-7.2-7.2-7.2h-72.8c-4,0-7.2,3.2-7.2,7.2s3.2,7.2,7.2,7.2h29.2v36h-16c-8.8,0-16,7.2-16,16v28
			c-9.2,4.8-16.8,11.2-22.8,18.4h-46.4c-30,0-40.4,23.2-40.4,44.8V202c0,8.8,7.6,16,17.2,16h23.2c9.6,0,17.2-7.2,17.2-16v-22.8h29.2
			c13.6,17.6,37.2,28,62.4,28s48.8-10.8,62.4-28h29.6v33.6c0,8.8,7.2,16,16,16h24c8.8,0,16-7.2,16-16V71.2
			C315.604,62.4,308.404,55.2,299.604,55.2z M300.804,212.8c0,0.8-0.8,1.2-1.2,1.2h-24c-0.8,0-1.2-0.8-1.2-1.2v-41.2
			c0-4-3.2-7.2-7.2-7.2h-40.8c-2.4,0-4.8,1.2-6,3.2c-10.4,15.2-30.4,24.8-52.8,24.8c-22.4,0-42-9.2-52.4-24.8c-1.2-2-3.6-3.2-6-3.2
			h-40.4c-4,0-7.2,3.2-7.2,7.2v30c0,0.4-0.8,1.2-2.4,1.2h-23.2c-1.6,0-2.4-0.8-2.4-1.2v-44c0-13.6,4.4-30,26-30h50
			c2.4,0,4.8-1.2,6-3.2c5.2-7.6,13.2-14,23.2-18.8c2.8-1.2,4.4-4,4.4-6.8V66.4c0-0.8,0.8-1.2,1.2-1.2h46.4c0.4,0,0.8,0.4,0.8,1.2v32
			c0,2.8,1.6,5.6,4.4,6.8c10.4,4.4,18.8,11.2,24.4,19.2c1.2,2,3.6,3.2,6,3.2h40.8c4,0,7.2-3.2,7.2-7.2V71.2c0-0.8,0.8-1.2,1.2-1.2
			h24c0.8,0,1.2,0.8,1.2,1.2V212.8z"/>
	</g>
</g>
<g>
</g>
<g>
</g>
<g>
</g>
<g>
</g>
<g>
</g>
<g>
</g>
<g>
</g>
<g>
</g>
<g>
</g>
<g>
</g>
<g>
</g>
<g>
</g>
<g>
</g>
<g>
</g>
<g>
</g>
</svg>
